<?xml version="1.0" encoding="iso-8859-1"?>
<!-- Uploaded to: SVG Repo, www.svgrepo.com, Generator: SVG Repo Mixer Tools -->
<svg fill="#000000" height="800px" width="800px" version="1.1" id="Layer_1" xmlns="http://www.w3.org/2000/svg" xmlns:xlink="http://www.w3.org/1999/xlink" 
	 viewBox="0 0 512.001 512.001" xml:space="preserve">
<g>
	<g>
		<path d="M231.844,0c-32.944,0-59.745,26.802-59.745,59.745c0,32.943,26.801,59.745,59.745,59.745
			c32.943,0,59.745-26.802,59.745-59.745C291.588,26.802,264.786,0,231.844,0z M231.844,102.393
			c-23.517,0-42.649-19.133-42.649-42.649c0-23.516,19.131-42.649,42.649-42.649c23.516,0,42.649,19.133,42.649,42.649
			C274.492,83.261,255.36,102.393,231.844,102.393z"/>
	</g>
</g>
<g>
	<g>
		<path d="M451.519,349.159l-28.864,17.318l-66.398-116.182h-76.045V147.903h-96.74v40.048
			c-85.445,4.46-153.59,75.377-153.59,161.913c0,89.403,72.734,162.138,162.138,162.138c40.922,0,79.998-15.286,110.028-43.043
			c24.005-22.187,40.532-50.735,47.846-82.054l43.876,71.01l88.348-47.573L451.519,349.159z M286.53,324.275
			c3.323,10.036,5.023,20.528,5.023,31.274c0,54.882-44.65,99.532-99.532,99.532c-54.883,0-99.532-44.65-99.532-99.532
			c0-52.002,40.089-94.812,90.984-99.162v67.888H286.53z M290.444,456.403c-26.861,24.828-61.815,38.501-98.423,38.501
			c-79.976,0-145.042-65.065-145.042-145.042c0-77.106,60.482-140.343,136.494-144.783v34.156
			c-60.333,4.391-108.08,54.88-108.08,116.314c0,64.309,52.319,116.628,116.628,116.628s116.628-52.319,116.628-116.628
			c0-10.682-1.444-21.152-4.258-31.274h8.51l23.391,40.498C332.714,399.864,316.503,432.316,290.444,456.403z M352.339,358.344
			l-29.569-51.166H200.568v-142.18h62.548v102.393h83.221l70.141,122.729l28.009-16.805l14.922,29.836l-59.564,32.072
			L352.339,358.344z"/>
	</g>
</g>
</svg>